<?xml version="1.0" standalone="no"?>
<!DOCTYPE svg PUBLIC "-//W3C//DTD SVG 20010904//EN"
 "http://www.w3.org/TR/2001/REC-SVG-20010904/DTD/svg10.dtd">
<svg version="1.0" xmlns="http://www.w3.org/2000/svg"
 width="16.000000pt" height="16.000000pt" viewBox="0 0 16.000000 16.000000"
 preserveAspectRatio="xMidYMid meet">
<metadata>
Created by potrace 1.11, written by Peter Selinger 2001-2013
</metadata>
<g transform="translate(0.000000,16.000000) scale(0.003556,-0.003556)"
fill="#000000" stroke="none">
<path d="M1093 3745 c-33 -35 -91 -148 -107 -212 -8 -32 -49 -164 -91 -293
-42 -129 -82 -259 -90 -288 -8 -29 -22 -63 -31 -77 -9 -13 -13 -29 -9 -35 3
-5 2 -10 -3 -10 -5 0 -16 -17 -24 -37 -14 -35 -15 -17 -17 242 -1 238 1 286
15 326 21 56 13 114 -16 122 -11 3 -24 -1 -31 -9 -13 -16 -13 -37 -4 -396 9
-331 4 -387 -37 -434 -16 -19 -34 -34 -39 -34 -5 0 -9 18 -9 39 0 22 -5 43
-11 46 -5 4 -26 -9 -45 -29 -19 -20 -39 -36 -44 -36 -6 0 -10 -6 -10 -14 0 -8
-3 -16 -7 -18 -23 -10 -55 -72 -51 -99 4 -26 2 -28 -16 -23 -19 6 -19 6 -3
-19 9 -14 14 -33 11 -42 -4 -8 -2 -21 4 -28 5 -6 8 -20 7 -29 -2 -10 1 -18 7
-18 6 0 8 -7 5 -15 -4 -8 -2 -17 4 -20 5 -4 7 -11 4 -16 -14 -22 70 -70 114
-64 28 3 32 1 25 -13 -16 -36 -5 -74 30 -103 22 -19 36 -42 40 -65 5 -23 14
-38 30 -43 59 -23 119 -197 78 -227 -9 -8 -21 -14 -27 -14 -5 0 -28 -9 -49
-19 -29 -14 -44 -16 -56 -8 -13 7 -24 5 -43 -9 -15 -10 -27 -25 -27 -32 0 -9
-10 -12 -27 -10 -25 3 -28 0 -30 -32 -3 -44 24 -185 43 -227 18 -40 18 -58 -1
-77 -14 -13 -13 -16 2 -25 15 -8 16 -14 6 -43 -6 -18 -14 -51 -18 -73 -13 -76
-74 -154 -155 -198 -25 -13 -30 -21 -22 -29 9 -9 18 -9 37 0 17 8 33 9 51 1
15 -5 29 -7 32 -4 3 3 -1 5 -9 5 -8 0 1 9 19 20 22 14 32 27 32 45 0 18 8 28
33 39 17 8 41 21 52 30 17 13 18 15 3 16 -9 0 -20 -4 -23 -10 -9 -14 -45 -12
-45 3 0 6 7 21 15 31 8 11 15 29 15 40 0 12 5 38 11 59 8 30 18 42 45 53 36
15 45 34 17 34 -38 1 -53 43 -59 167 -4 65 -11 126 -16 136 -7 13 -5 17 9 18
48 2 147 26 200 50 49 21 53 22 71 6 16 -15 18 -28 14 -97 -4 -69 -2 -80 12
-80 11 0 16 10 17 33 3 87 10 122 31 144 28 30 34 29 42 -8 3 -17 15 -42 26
-56 11 -14 20 -30 20 -36 0 -6 8 -19 17 -29 15 -17 15 -20 -13 -49 -16 -17
-80 -76 -141 -131 -118 -105 -165 -164 -136 -170 12 -2 11 -8 -6 -30 -19 -23
-19 -29 -7 -40 12 -11 12 -15 -1 -30 -13 -15 -14 -18 -2 -18 8 -1 2 -11 -15
-24 -28 -24 -28 -53 0 -42 11 4 13 -1 8 -20 -6 -24 -5 -26 17 -19 13 5 31 8
39 8 8 0 21 5 29 11 14 11 83 37 88 33 8 -9 -60 -75 -114 -109 -35 -22 -62
-42 -60 -44 7 -8 178 65 226 95 42 28 52 30 77 21 25 -10 31 -8 47 11 9 12 20
33 24 48 6 25 305 331 323 331 33 0 63 -24 80 -65 12 -27 52 -79 100 -128 44
-45 80 -87 80 -93 0 -19 30 -40 39 -26 4 7 23 -4 53 -33 53 -50 96 -80 104
-72 3 3 35 -15 71 -39 36 -24 73 -44 82 -44 10 0 41 -11 70 -25 28 -14 56 -23
60 -21 4 3 17 -1 27 -9 10 -8 26 -15 36 -15 9 0 39 -12 67 -26 34 -18 58 -24
75 -20 27 7 61 59 50 77 -3 6 8 28 24 48 44 55 50 101 19 143 -14 18 -32 51
-40 73 -8 22 -18 48 -21 57 -6 13 0 18 31 24 76 15 166 1 268 -42 19 -8 36
-14 37 -13 2 0 17 -5 33 -11 45 -18 65 -20 65 -8 0 7 5 6 14 -1 11 -10 16 -9
24 5 6 11 11 13 16 5 9 -14 53 -15 61 -1 4 6 10 8 15 5 4 -3 13 2 19 9 9 11 9
16 1 21 -8 5 -5 13 8 25 11 10 28 39 38 64 24 57 55 77 83 52 19 -17 21 -17
53 1 18 10 40 25 48 33 26 24 61 92 56 106 -3 8 -2 14 2 14 4 0 7 16 7 35 0
28 -3 34 -17 29 -9 -2 -19 0 -22 5 -8 13 21 41 42 40 11 0 12 -2 4 -6 -6 -2
-10 -9 -6 -14 8 -14 24 -11 24 6 0 8 4 15 9 15 13 0 71 59 71 72 0 7 7 19 16
29 8 9 17 33 18 53 4 45 20 64 50 59 18 -4 34 6 66 39 50 51 64 82 50 108 -7
13 -5 23 8 38 17 20 84 41 81 25 -3 -19 2 -23 21 -13 11 6 20 17 20 25 0 8 6
15 13 15 14 0 57 41 57 55 0 4 -8 14 -17 20 -17 12 -17 14 1 34 23 25 43 27
68 4 18 -16 21 -14 68 32 55 54 58 62 34 80 -15 11 -15 14 0 37 22 34 45 42
66 23 15 -14 19 -13 45 12 32 32 75 114 75 142 0 10 -7 21 -15 25 -8 3 -15 14
-15 24 0 24 35 58 45 43 11 -19 21 -12 38 27 21 48 21 72 1 86 -22 16 -3 63
28 68 18 2 24 12 30 48 7 37 4 50 -12 72 -24 32 -37 103 -21 112 17 11 14 20
-18 60 -24 29 -28 42 -21 60 19 50 3 73 -84 115 -241 118 -526 130 -981 42
-82 -16 -186 -34 -230 -41 -44 -6 -98 -17 -121 -24 -46 -14 -167 -6 -216 15
-53 22 -246 -7 -409 -62 -48 -16 -150 -59 -226 -95 -76 -36 -217 -97 -313
-135 -226 -90 -402 -177 -465 -230 -27 -23 -76 -59 -107 -80 -31 -22 -71 -59
-88 -84 -17 -25 -38 -45 -47 -45 -14 0 -14 2 1 19 26 29 11 43 -43 41 -68 -4
-73 -2 -66 19 4 14 -1 20 -20 25 -20 5 -25 13 -25 36 0 16 4 39 9 52 6 13 24
64 41 113 33 94 46 127 62 159 18 35 57 169 52 177 -3 5 -1 9 4 9 4 0 16 28
26 63 9 34 23 73 30 87 8 14 11 30 9 37 -2 6 1 14 6 18 6 3 11 17 11 30 0 13
5 27 10 30 6 3 10 16 10 29 0 12 5 27 11 33 6 6 12 36 13 66 1 43 6 59 23 74
24 20 87 138 81 151 -1 5 -13 -1 -25 -13z m2659 -513 c9 -9 2 -12 -35 -12 -43
0 -56 7 -42 22 10 10 64 3 77 -10z m-315 -8 c-3 -3 -12 -4 -19 -1 -8 3 -5 6 6
6 11 1 17 -2 13 -5z m-337 -23 c0 -9 -61 -27 -130 -37 -60 -9 -47 3 31 26 72
21 99 24 99 11z m-562 -30 c7 -4 -33 -19 -88 -33 -89 -23 -102 -24 -107 -11
-7 17 29 50 62 56 26 5 116 -4 133 -12z m1330 -42 c31 -12 28 -21 -13 -43 -24
-13 -35 -26 -35 -42 0 -12 -5 -24 -12 -26 -20 -7 -86 15 -115 38 l-28 22 21
29 c29 39 107 49 182 22z m-334 -37 c-4 -15 -9 -30 -13 -33 -3 -4 -38 -9 -77
-13 -79 -7 -92 2 -74 48 7 20 18 26 57 31 26 3 55 7 63 9 31 5 51 -13 44 -42z
m-355 23 c-9 -9 -27 -17 -40 -19 -13 -1 -32 -6 -41 -10 -10 -5 -25 -6 -33 -3
-8 4 -17 2 -20 -3 -4 -6 -18 -10 -33 -9 -24 0 -22 2 13 15 22 8 67 21 100 28
33 7 62 14 65 15 2 0 -3 -6 -11 -14z m-990 -56 c-17 -11 -31 -7 -37 9 -2 7 3
12 12 12 9 0 16 6 16 13 0 6 5 4 11 -7 9 -14 8 -20 -2 -27z m624 21 c-10 -11
-26 -20 -36 -20 -17 0 -17 2 4 20 32 26 54 26 32 0z m387 -29 c0 -10 -89 -21
-104 -13 -5 3 -1 9 10 13 27 11 94 11 94 0z m372 -59 c8 -8 8 -15 -1 -26 -23
-28 -151 -1 -151 31 0 13 12 15 71 11 39 -3 75 -10 81 -16z m-1281 -46 c-15
-18 -6 -69 15 -87 22 -18 17 -29 -16 -29 -25 0 -30 4 -30 25 0 14 -4 25 -9 25
-18 0 -3 53 20 71 27 20 38 17 20 -5z m932 5 c5 -5 16 -7 23 -4 22 8 16 -13
-11 -43 -14 -15 -25 -33 -25 -40 0 -8 -2 -14 -4 -14 -2 0 -11 -3 -19 -6 -22
-8 -51 25 -36 42 9 11 5 17 -20 31 -28 16 -38 33 -26 44 7 8 109 -1 118 -10z
m611 -14 c-4 -11 -13 -35 -20 -53 -13 -31 -16 -33 -40 -23 -41 15 -84 49 -84
65 0 21 37 33 98 32 48 -1 52 -3 46 -21z m-296 -42 c20 -9 47 -25 59 -37 l22
-21 -25 -48 c-13 -27 -31 -49 -39 -49 -51 0 -142 69 -137 103 5 29 29 55 56
60 11 2 22 5 24 6 1 0 19 -6 40 -14z m-1465 -22 c-7 -2 -13 -12 -13 -21 0 -9
-7 -26 -15 -36 -12 -16 -12 -22 -2 -35 9 -12 9 -13 0 -7 -7 4 -13 3 -13 -3 0
-5 6 -11 12 -13 13 -5 -71 -58 -90 -58 -10 0 -15 11 -11 23 0 1 -9 25 -20 54
l-20 52 42 15 c79 28 102 34 122 34 11 0 14 -2 8 -5z m-298 -36 c-41 -27 -136
-45 -112 -21 10 11 82 33 107 34 23 0 24 -1 5 -13z m855 4 c0 -6 -4 -13 -10
-16 -33 -20 16 -101 72 -122 30 -10 31 -12 8 -12 -34 -1 -112 23 -104 32 4 4
2 7 -4 7 -16 0 -42 29 -42 46 0 9 13 29 29 45 29 29 51 37 51 20z m1193 -58
c31 -16 31 -17 9 -22 -12 -3 -31 -20 -41 -37 -19 -31 -19 -32 0 -60 10 -16 19
-32 19 -36 0 -17 -36 -7 -64 17 -16 14 -32 25 -36 25 -3 0 -14 16 -23 35 -21
44 -7 82 32 88 54 8 73 7 104 -10z m-2027 -18 c9 -8 13 -19 9 -25 -3 -5 -1
-19 5 -30 8 -14 7 -29 -4 -55 -8 -19 -13 -35 -10 -35 3 0 2 -5 -1 -11 -8 -12
-35 35 -39 68 -1 11 -10 33 -20 48 -19 28 -14 40 19 48 11 3 21 5 23 6 2 0 10
-6 18 -14z m666 -18 c10 -7 16 -17 14 -24 -3 -6 2 -14 10 -17 9 -4 14 -15 12
-28 -2 -18 -12 -24 -41 -29 -61 -10 -128 52 -111 103 5 17 12 19 51 13 25 -4
54 -12 65 -18z m1033 -57 c3 -5 21 -17 40 -26 l34 -16 -23 -36 c-12 -21 -25
-45 -29 -54 -15 -42 -127 -5 -147 48 -14 37 -12 52 10 74 21 21 103 29 115 10z
m-2177 -31 c-8 -24 -8 -37 1 -50 6 -11 8 -19 3 -19 -4 0 -23 -14 -41 -30 -36
-34 -54 -29 -65 15 -4 14 -11 25 -16 25 -6 0 -10 9 -10 20 0 13 5 18 15 14 8
-4 15 -1 15 5 0 6 5 11 11 11 6 0 22 9 36 20 14 11 34 20 44 20 16 0 17 -4 7
-31z m840 14 c35 -23 51 -44 45 -60 -3 -7 1 -13 8 -13 23 0 -4 -17 -53 -33
l-47 -15 -33 37 c-18 21 -42 42 -52 48 -18 10 -16 12 15 26 71 32 81 33 117
10z m856 -2 c3 -5 -10 -26 -29 -47 -36 -39 -45 -80 -23 -102 7 -7 9 -12 4 -12
-16 0 20 -27 59 -43 l40 -18 -61 5 c-103 9 -114 17 -139 94 -6 20 2 33 49 78
52 50 87 66 100 45z m-241 -58 c4 -2 7 -19 7 -37 0 -17 5 -37 10 -42 6 -6 7
-24 4 -41 -5 -27 -11 -31 -47 -36 -60 -8 -102 25 -111 88 -8 52 -3 65 27 65
12 0 29 5 37 10 13 8 52 5 73 -7z m983 -39 c42 -20 44 -34 5 -34 -41 0 -84
-36 -75 -64 4 -11 10 -36 14 -53 9 -39 -1 -36 -66 21 -47 40 -54 58 -42 103 6
24 15 33 36 36 59 9 95 6 128 -9z m231 -5 c34 -15 43 -23 34 -32 -9 -9 -23 -5
-56 13 -24 13 -42 28 -39 32 7 11 9 11 61 -13z m-629 -12 c12 -14 5 -57 -8
-57 -10 0 -20 26 -20 51 0 22 13 25 28 6z m-1418 -7 c0 -6 12 -15 26 -20 14
-6 22 -14 19 -20 -13 -21 -114 10 -123 38 -2 8 9 12 37 12 23 0 41 -5 41 -10z
m504 -7 c4 -5 13 -8 19 -8 7 0 16 -9 21 -21 5 -12 22 -30 37 -40 15 -10 26
-20 25 -22 -2 -2 -26 -5 -52 -7 -46 -4 -52 -2 -96 39 -27 23 -48 45 -48 49 0
3 17 8 38 10 20 2 40 4 43 5 3 1 9 -1 13 -5z m814 -29 c15 -4 22 -14 22 -29 0
-13 3 -25 8 -28 4 -2 1 -2 -7 0 -8 2 -11 -2 -7 -12 3 -9 0 -15 -9 -15 -8 0
-15 4 -15 9 0 5 -18 12 -40 16 -22 4 -40 10 -40 15 0 4 -13 13 -30 19 -50 17
-35 31 33 31 34 0 72 -3 85 -6z m-1869 -48 c17 -37 5 -99 -22 -104 -29 -6 -49
18 -43 50 3 15 9 42 12 59 8 38 33 36 53 -5z m835 -1 c3 -8 12 -15 21 -15 17
0 20 -16 5 -25 -5 -3 -10 -2 -10 2 0 5 -18 16 -40 26 -22 9 -40 19 -40 22 0
13 58 3 64 -10z m1306 -60 c0 -4 -6 -18 -14 -33 -13 -27 -14 -62 -1 -103 5
-15 3 -20 -6 -17 -22 7 -48 51 -53 90 -3 21 -6 41 -7 45 -1 4 -1 11 0 16 1 8
81 10 81 2z m359 -66 c4 -14 -17 -29 -43 -29 -12 0 -16 5 -12 15 3 8 1 15 -4
15 -15 0 -50 38 -50 55 0 12 12 9 52 -15 29 -16 55 -35 57 -41z m-315 52 c4
-5 -3 -7 -14 -4 -23 6 -26 13 -6 13 8 0 17 -4 20 -9z m-689 -71 c22 -24 12
-56 -21 -64 -28 -7 -40 -2 -53 22 -24 46 38 81 74 42z m-1995 -8 c29 -24 20
-40 -20 -34 -34 5 -44 16 -36 37 7 20 29 19 56 -3z m1531 -14 c31 -43 23 -48
-74 -39 -9 1 -5 54 5 61 18 14 51 3 69 -22z m218 11 c36 -13 40 -25 11 -34
-22 -7 -90 11 -90 24 0 23 30 27 79 10z m404 -19 c21 -34 75 -90 88 -90 5 0 9
-4 9 -10 0 -15 -37 -12 -70 5 -33 17 -75 69 -83 103 -8 35 34 30 56 -8z
m-2033 -20 c0 -5 -2 -10 -4 -10 -3 0 -8 5 -11 10 -3 6 -1 10 4 10 6 0 11 -4
11 -10z m520 0 c0 -6 -5 -27 -12 -48 -11 -36 -13 -37 -57 -37 -65 2 -64 30 4
67 55 30 65 33 65 18z m1910 -44 c0 -3 -4 -8 -10 -11 -5 -3 -10 -1 -10 4 0 6
5 11 10 11 6 0 10 -2 10 -4z m241 -25 c17 -10 27 -21 22 -24 -4 -3 -22 6 -38
19 -36 29 -28 31 16 5z m-1729 -33 c24 -24 18 -40 -25 -66 -23 -14 -29 -15
-36 -3 -7 10 -13 11 -30 2 -31 -17 -46 -3 -21 19 11 9 20 21 20 25 0 16 33 45
52 45 10 0 28 -10 40 -22z m623 -21 c0 -17 -5 -41 -11 -51 -6 -10 -9 -28 -6
-39 5 -18 2 -20 -37 -14 -24 3 -45 8 -48 11 -6 6 13 75 29 109 6 11 20 17 41
17 29 0 32 -3 32 -33z m253 -13 c8 -77 2 -112 -21 -129 -23 -16 -66 -11 -89
12 -17 17 -17 23 -4 71 15 60 38 82 81 78 25 -3 31 -8 33 -32z m-465 -9 c7
-17 -8 -29 -28 -21 -17 6 -9 36 10 36 7 0 15 -7 18 -15z m732 -6 c8 -9 -93
-21 -106 -13 -19 11 9 21 56 20 24 -1 46 -4 50 -7z m-1975 -25 c39 -16 40 -17
24 -35 -22 -25 -66 -24 -89 1 -15 16 -15 22 -5 35 16 19 20 19 70 -1z m1844
-10 c20 -8 20 -24 0 -38 -14 -11 -14 -17 6 -59 13 -26 32 -52 43 -58 20 -11
68 -62 62 -67 -5 -6 -60 24 -84 46 -13 12 -27 22 -31 22 -15 0 -50 62 -55 96
-7 53 15 75 59 58z m-703 -82 c-6 -2 -8 -8 -5 -13 3 -6 0 -24 -7 -41 -10 -25
-14 -27 -21 -14 -5 9 -6 21 -3 26 3 6 1 10 -5 10 -6 0 -4 12 5 31 14 26 19 28
32 18 10 -9 11 -15 4 -17z m-519 7 c3 -9 9 -9 25 0 14 7 24 8 28 1 3 -5 14
-10 25 -10 10 0 21 -7 24 -16 6 -16 -16 -68 -34 -79 -5 -3 -10 -14 -10 -25 0
-19 -26 -35 -34 -21 -3 5 -19 11 -36 15 -18 3 -29 10 -25 16 3 5 2 10 -4 10
-5 0 -12 13 -16 30 -9 43 44 117 57 79z m687 -56 c9 -19 9 -29 2 -31 -6 -2
-11 -19 -11 -38 0 -20 4 -33 8 -30 4 2 9 -4 9 -15 1 -10 -5 -19 -13 -19 -8 0
-14 5 -14 10 0 6 -10 10 -22 10 -22 0 -23 3 -19 62 3 59 12 77 37 78 6 0 16
-12 23 -27z m-1106 -49 c18 -23 17 -24 -3 -24 -23 0 -82 58 -74 72 7 11 55
-18 77 -48z m2087 15 c0 -18 -21 -49 -34 -49 -2 0 -4 10 -4 23 3 41 38 67 38
26z m-714 -24 c33 -13 35 -17 30 -47 -8 -51 -11 -62 -20 -76 -4 -7 -3 -19 3
-26 26 -31 -37 -36 -80 -6 -48 35 -52 136 -6 158 30 14 32 14 73 -3z m-1358
-70 c-3 -3 -9 2 -12 12 -6 14 -5 15 5 6 7 -7 10 -15 7 -18z m1631 6 c16 -11 7
-16 -42 -25 -39 -7 -73 7 -61 25 7 11 85 11 103 0z m-104 -86 c1 -68 8 -85 59
-135 19 -19 36 -39 36 -43 0 -12 -75 49 -122 98 -32 33 -38 44 -32 69 3 15 7
34 8 40 3 22 18 37 34 34 14 -3 17 -16 17 -63z m-1055 -45 c0 -21 -24 -27 -50
-10 -12 7 -10 11 10 19 36 14 40 13 40 -9z m664 -32 c-4 -6 -10 -5 -15 3 -14
22 -10 33 6 19 8 -7 12 -17 9 -22z m-472 -34 c6 -13 17 -24 24 -24 11 0 34
-29 34 -43 0 -2 -10 -3 -22 -3 -16 1 -23 -4 -22 -16 2 -22 -29 -32 -56 -18
-11 6 -20 8 -20 5 0 -4 -18 8 -41 26 l-41 32 41 37 c47 42 85 44 103 4z m488
-18 c0 -2 -7 -9 -15 -16 -13 -11 -14 -10 -9 4 5 14 24 23 24 12z m202 -19 c3
-5 6 -25 6 -43 0 -35 -19 -59 -47 -59 -9 0 -15 -8 -15 -17 1 -11 -5 -18 -17
-18 -12 0 -19 7 -19 20 0 11 6 20 13 20 9 0 9 2 -1 8 -10 7 -10 14 3 38 8 16
15 36 15 45 0 9 3 19 7 22 8 9 46 -2 55 -16z m-930 -46 c18 -31 18 -32 -2 -21
-14 7 -20 7 -20 0 0 -5 -5 -10 -11 -10 -5 0 -8 4 -4 10 3 5 -5 9 -17 8 -45 -2
-58 2 -58 18 0 8 5 12 10 9 6 -3 13 1 16 9 11 28 66 13 86 -23z m678 -19 c-5
-2 -19 2 -30 8 -21 11 -21 12 -3 25 16 12 19 11 30 -8 6 -12 8 -23 3 -25z
m-144 1 c13 -8 24 -19 24 -23 0 -12 -69 15 -88 35 -16 17 -16 17 12 11 15 -4
39 -14 52 -23z m954 -3 c0 -5 -2 -10 -4 -10 -3 0 -8 5 -11 10 -3 6 -1 10 4 10
6 0 11 -4 11 -10z m-478 -39 c-10 -23 -22 -37 -29 -34 -14 6 -4 30 23 57 23
24 24 20 6 -23z m-927 9 c4 -6 11 -8 16 -4 5 3 31 -5 57 -18 41 -20 44 -23 23
-26 -13 -2 -27 2 -31 8 -4 6 -9 11 -11 9 -2 -1 -15 1 -29 5 -14 5 -30 8 -36 7
-6 -1 -17 6 -24 14 -10 13 -9 15 8 15 12 0 24 -5 27 -10z m410 0 c3 -5 15 -10
25 -10 10 0 22 -5 26 -11 4 -7 -5 -10 -27 -7 -37 3 -34 11 -42 -92 -2 -29 -20
-40 -32 -20 -3 5 -12 7 -19 4 -9 -3 -17 3 -21 15 -3 12 -14 21 -23 21 -15 1
-15 2 2 15 11 8 16 20 12 30 -5 13 -1 15 15 10 24 -8 46 15 26 27 -7 4 -3 10
13 17 33 13 38 13 45 1z m105 0 c0 -5 -2 -10 -4 -10 -3 0 -8 5 -11 10 -3 6 -1
10 4 10 6 0 11 -4 11 -10z m-634 -66 c27 -7 22 -36 -9 -49 -26 -12 -30 -41 -5
-39 10 1 19 -8 22 -22 4 -13 7 -27 9 -31 1 -5 -10 -8 -25 -8 -16 -1 -28 2 -28
6 0 4 -11 10 -25 13 -21 5 -25 12 -23 36 2 20 7 29 15 26 7 -3 13 1 13 9 0 8
5 15 10 15 6 0 10 8 10 18 0 14 -2 15 -10 2 -5 -8 -10 -10 -10 -4 0 11 20 34
30 34 3 0 15 -3 26 -6z m218 -94 c33 -12 33 -23 -1 -54 -25 -23 -28 -24 -55
-10 -34 17 -35 30 -6 55 24 22 28 22 62 9z m164 -113 c6 -5 12 -17 12 -27 0
-22 -60 -72 -78 -65 -8 3 -17 5 -21 5 -16 0 -4 48 19 76 24 30 40 33 68 11z
m-213 -37 c0 -18 -6 -26 -23 -28 -31 -5 -50 13 -45 42 4 20 9 22 36 17 26 -6
32 -12 32 -31z m-945 -10 c0 -5 -7 -10 -15 -10 -8 0 -15 5 -15 10 0 6 7 10 15
10 8 0 15 -4 15 -10z m1359 -9 c16 -10 6 -31 -14 -31 -17 0 -28 17 -20 30 8
12 16 12 34 1z m-277 -68 c10 -9 18 -22 18 -29 0 -18 -36 -27 -60 -14 -25 13
-26 36 -2 49 23 14 23 14 44 -6z m198 0 c-1 -26 -35 -67 -49 -59 -16 10 -14
37 6 58 21 23 43 23 43 1z m196 -28 c8 -31 3 -38 -20 -29 -24 9 -20 54 5 54 5
0 11 -11 15 -25z m-1612 -25 c-14 -14 -38 6 -30 25 5 15 7 15 22 0 10 -10 13
-20 8 -25z m1551 -18 c37 -27 -5 -67 -45 -42 -12 7 -12 12 4 29 21 23 26 24
41 13z m-178 -44 c-1 -20 -9 -21 -56 -12 -25 5 -29 9 -20 20 6 7 26 13 44 12
26 -1 33 -5 32 -20z m151 -44 c34 -23 27 -38 -14 -31 -44 7 -46 9 -38 31 8 20
23 20 52 0z"/>
<path d="M4215 3140 c61 -27 89 -34 80 -20 -10 16 -69 40 -97 39 -18 -1 -15
-4 17 -19z"/>
<path d="M7 2813 c-4 -3 -7 -13 -7 -22 0 -13 2 -13 9 -2 6 9 11 10 15 2 13
-20 27 -12 16 9 -11 21 -22 25 -33 13z"/>
<path d="M1 2667 l-2 -102 21 23 c12 12 25 20 30 17 6 -3 7 1 4 9 -3 9 -10 16
-15 16 -5 0 -9 7 -9 15 0 8 6 15 14 15 9 0 12 8 8 25 -3 19 0 25 14 26 15 0
15 2 4 6 -8 3 -19 12 -23 19 -4 8 -16 18 -26 24 -18 9 -19 3 -20 -93z"/>
<path d="M0 2534 c0 -13 5 -24 11 -24 6 0 9 6 6 14 -4 9 1 16 11 18 13 3 12 5
-5 10 -19 5 -23 2 -23 -18z"/>
<path d="M5 2400 c3 -5 8 -10 11 -10 2 0 4 5 4 10 0 6 -5 10 -11 10 -5 0 -7
-4 -4 -10z"/>
<path d="M0 2370 c0 -5 5 -10 10 -10 6 0 10 5 10 10 0 6 -4 10 -10 10 -5 0
-10 -4 -10 -10z"/>
<path d="M10 1466 c0 -2 7 -6 15 -10 8 -3 15 -1 15 4 0 6 -7 10 -15 10 -8 0
-15 -2 -15 -4z"/>
<path d="M3 1411 c0 -22 4 -28 15 -23 11 4 13 1 7 -9 -4 -8 -5 -11 0 -7 4 4
14 3 22 -3 9 -9 13 -8 13 0 0 6 -5 11 -11 11 -6 0 -9 9 -6 19 3 14 1 18 -9 14
-8 -3 -14 1 -14 11 0 9 -4 16 -8 16 -5 0 -9 -13 -9 -29z"/>
<path d="M0 1335 c0 -33 15 -33 16 0 1 14 -2 25 -7 25 -5 0 -9 -11 -9 -25z"/>
<path d="M2 1235 c-2 -39 1 -45 18 -45 11 0 20 5 20 10 0 6 -7 10 -15 10 -8 0
-15 5 -15 10 0 6 10 10 22 10 17 0 19 3 10 12 -8 8 -9 15 -1 25 9 10 6 13 -13
13 -22 0 -25 -4 -26 -45z"/>
<path d="M8 1158 c-3 -7 -3 -22 0 -34 3 -16 9 -20 23 -17 23 6 26 23 4 23 -8
0 -15 5 -15 10 0 6 3 9 8 9 18 -3 32 2 32 11 0 14 -48 12 -52 -2z"/>
<path d="M67 1113 c-4 -3 -7 -18 -6 -32 0 -16 3 -20 6 -11 3 8 10 17 14 20 4
3 4 11 0 18 -4 7 -10 9 -14 5z"/>
<path d="M619 1095 c-1 -6 0 -21 1 -34 2 -21 -1 -23 -27 -18 -41 8 -58 -4 -43
-33 9 -16 17 -20 36 -16 15 4 24 2 24 -5 0 -6 9 -9 20 -6 11 3 20 0 20 -6 0
-8 3 -8 12 1 8 8 8 15 -1 26 -7 8 -11 23 -9 33 1 10 -5 29 -15 43 -9 13 -17
20 -18 15z"/>
<path d="M31 1073 c-6 -10 -11 -12 -11 -5 0 29 -20 9 -20 -20 0 -24 3 -29 10
-18 5 8 12 12 15 8 3 -3 -1 -12 -9 -20 -11 -12 -15 -42 -15 -128 0 -114 8
-140 41 -140 8 0 14 -9 14 -20 0 -11 -6 -20 -14 -20 -7 0 -11 4 -8 9 3 5 -1
12 -10 15 -25 9 -27 7 -9 -11 10 -9 15 -26 12 -40 -6 -31 11 -40 31 -17 16 17
16 17 0 5 -25 -19 -22 1 5 31 23 27 34 54 17 43 -5 -3 -10 1 -10 10 0 11 5 15
15 11 9 -3 15 0 15 9 0 8 -3 14 -7 14 -24 -4 -43 2 -38 12 4 6 13 8 21 5 8 -3
14 -1 14 5 0 6 3 8 8 6 4 -3 6 16 5 41 -2 38 0 42 6 22 8 -21 9 -22 10 -5 0
11 -6 29 -14 39 -15 19 -15 19 -15 -2 0 -19 -2 -21 -14 -10 -10 9 -11 15 -2
20 7 5 3 8 -9 9 l-20 0 20 9 c13 6 15 9 5 9 -13 1 -13 2 0 11 13 8 12 10 -3
10 -11 0 -15 4 -11 12 5 8 2 9 -9 5 -10 -3 -17 -3 -17 1 0 12 14 29 30 35 13
5 12 6 -1 6 -12 1 -15 9 -13 31 4 34 0 38 -15 13z m36 -195 c-3 -8 -6 -5 -6 6
-1 11 2 17 5 13 3 -3 4 -12 1 -19z m-41 -36 c-18 -16 -19 -16 -12 1 3 10 6 24
6 30 0 8 4 7 12 -1 10 -9 8 -16 -6 -30z m64 9 c0 -6 -4 -13 -10 -16 -5 -3 -10
1 -10 9 0 9 5 16 10 16 6 0 10 -4 10 -9z"/>
<path d="M75 1040 c3 -5 8 -10 11 -10 2 0 4 5 4 10 0 6 -5 10 -11 10 -5 0 -7
-4 -4 -10z"/>
<path d="M489 803 c-15 -7 -35 -25 -45 -40 -10 -16 -24 -34 -31 -41 -7 -7 -13
-22 -13 -31 0 -10 -9 -30 -20 -44 -16 -20 -17 -26 -5 -30 8 -4 17 2 21 15 3
11 42 58 85 103 66 68 75 82 57 82 -13 0 -35 -6 -49 -14z"/>
<path d="M309 634 c-5 -15 -12 -31 -15 -35 -3 -5 0 -9 5 -9 6 0 11 7 11 15 0
9 7 18 15 21 8 4 15 12 15 20 0 24 -20 15 -31 -12z"/>
<path d="M238 508 c-58 -70 -88 -118 -128 -205 -19 -40 -41 -75 -50 -78 -24
-8 -60 -98 -60 -151 0 -41 2 -45 16 -34 8 8 23 30 33 49 73 146 113 209 130
203 9 -3 11 0 7 7 -11 17 27 92 68 136 20 21 36 42 36 46 0 5 4 9 8 9 5 0 14
10 19 23 9 19 8 26 -8 35 -10 7 -20 12 -23 12 -2 0 -23 -24 -48 -52z"/>
</g>
</svg>
